<?xml version="1.0" encoding="UTF-8"?>
<svg width="375px" height="667px" viewBox="0 0 375 667" version="1.1" xmlns="http://www.w3.org/2000/svg" xmlns:xlink="http://www.w3.org/1999/xlink" style="background: #FFFFFF;">
    <!-- Generator: Sketch 48.2 (47327) - http://www.bohemiancoding.com/sketch -->
    <title>slideScreenViews</title>
    <desc>Created with Sketch.</desc>
    <defs>
        <rect id="path-1" x="96" y="208.722714" width="183" height="148.802318"></rect>
        <rect id="path-2" x="0" y="0.0932874815" width="75" height="36.2685007"></rect>
        <filter x="-0.7%" y="-1.4%" width="101.3%" height="102.8%" filterUnits="objectBoundingBox" id="filter-3">
            <feOffset dx="0" dy="-1" in="SourceAlpha" result="shadowOffsetInner1"></feOffset>
            <feComposite in="shadowOffsetInner1" in2="SourceAlpha" operator="arithmetic" k2="-1" k3="1" result="shadowInnerInner1"></feComposite>
            <feColorMatrix values="0 0 0 0 0.149019608   0 0 0 0 0.149019608   0 0 0 0 0.149019608  0 0 0 1 0" type="matrix" in="shadowInnerInner1"></feColorMatrix>
        </filter>
        <rect id="path-4" x="0" y="0.0932874815" width="75" height="36.2685007"></rect>
        <filter x="-0.7%" y="-1.4%" width="101.3%" height="102.8%" filterUnits="objectBoundingBox" id="filter-5">
            <feOffset dx="0" dy="-1" in="SourceAlpha" result="shadowOffsetInner1"></feOffset>
            <feComposite in="shadowOffsetInner1" in2="SourceAlpha" operator="arithmetic" k2="-1" k3="1" result="shadowInnerInner1"></feComposite>
            <feColorMatrix values="0 0 0 0 0.858823529   0 0 0 0 0.858823529   0 0 0 0 0.858823529  0 0 0 1 0" type="matrix" in="shadowInnerInner1"></feColorMatrix>
        </filter>
        <rect id="path-6" x="0" y="0.0932874815" width="75" height="36.2685007"></rect>
        <filter x="-0.7%" y="-1.4%" width="101.3%" height="102.8%" filterUnits="objectBoundingBox" id="filter-7">
            <feOffset dx="0" dy="-1" in="SourceAlpha" result="shadowOffsetInner1"></feOffset>
            <feComposite in="shadowOffsetInner1" in2="SourceAlpha" operator="arithmetic" k2="-1" k3="1" result="shadowInnerInner1"></feComposite>
            <feColorMatrix values="0 0 0 0 0.858823529   0 0 0 0 0.858823529   0 0 0 0 0.858823529  0 0 0 1 0" type="matrix" in="shadowInnerInner1"></feColorMatrix>
        </filter>
        <rect id="path-8" x="0" y="0.0932874815" width="75" height="36.2685007"></rect>
        <filter x="-0.7%" y="-1.4%" width="101.3%" height="102.8%" filterUnits="objectBoundingBox" id="filter-9">
            <feOffset dx="0" dy="-1" in="SourceAlpha" result="shadowOffsetInner1"></feOffset>
            <feComposite in="shadowOffsetInner1" in2="SourceAlpha" operator="arithmetic" k2="-1" k3="1" result="shadowInnerInner1"></feComposite>
            <feColorMatrix values="0 0 0 0 0.858823529   0 0 0 0 0.858823529   0 0 0 0 0.858823529  0 0 0 1 0" type="matrix" in="shadowInnerInner1"></feColorMatrix>
        </filter>
        <rect id="path-10" x="0" y="0.0932874815" width="75" height="36.2685007"></rect>
        <filter x="-0.7%" y="-1.4%" width="101.3%" height="102.8%" filterUnits="objectBoundingBox" id="filter-11">
            <feOffset dx="0" dy="-1" in="SourceAlpha" result="shadowOffsetInner1"></feOffset>
            <feComposite in="shadowOffsetInner1" in2="SourceAlpha" operator="arithmetic" k2="-1" k3="1" result="shadowInnerInner1"></feComposite>
            <feColorMatrix values="0 0 0 0 0.858823529   0 0 0 0 0.858823529   0 0 0 0 0.858823529  0 0 0 1 0" type="matrix" in="shadowInnerInner1"></feColorMatrix>
        </filter>
    </defs>
    <g id="Page-1" stroke="none" stroke-width="1" fill="none" fill-rule="evenodd">
        <g id="slideScreenViews">
            <g id="sliderView" transform="translate(0.000000, 20.000000)">
                <rect id="sliderViewBound" x="0" y="0.998461553" width="375" height="645.007704"></rect>
                <g id="sliderContent" transform="translate(0.000000, 41.000000)">
                    <rect id="bound5" x="0" y="0" width="375" height="605.196005"></rect>
                    <g id="middleView">
                        <use fill="#D8D8D8" fill-rule="evenodd" xlink:href="#path-1"></use>
                        <rect stroke="#979797" stroke-width="1" x="96.5" y="209.222714" width="182" height="147.802318"></rect>
                    </g>
                </g>
                <g id="sliderOptions">
                    <rect id="sliderOptionBound" x="0" y="0.00139924771" width="375" height="41"></rect>
                    <g id="activeSliderOption1">
                        <g id="bound4" fill="black" fill-opacity="1">
                            <use filter="url(#filter-3)" xlink:href="#path-2"></use>
                        </g>
                        <text id="top" font-family=".AppleSystemUIFont" font-size="12" font-weight="normal" letter-spacing="-0.000427656196" fill="#2D2D2D">
                            <tspan x="26.9654852" y="23.634934">Top</tspan>
                        </text>
                    </g>
                    <g id="sliderOption2" transform="translate(75.000000, 0.000000)">
                        <g id="bound3" fill="black" fill-opacity="1">
                            <use filter="url(#filter-5)" xlink:href="#path-4"></use>
                        </g>
                        <text id="people" font-family=".AppleSystemUIFont" font-size="14" font-weight="normal" letter-spacing="-0.000498932204" fill="#999999">
                            <tspan x="15.4453445" y="24.634934">People</tspan>
                        </text>
                    </g>
                    <g id="sliderOption3" transform="translate(150.000000, 0.000000)">
                        <g id="bound2" fill="black" fill-opacity="1">
                            <use filter="url(#filter-7)" xlink:href="#path-6"></use>
                        </g>
                        <text id="comm" font-family=".AppleSystemUIFont" font-size="14" font-weight="normal" letter-spacing="-0.000498932204" fill="#999999">
                            <tspan x="16.7236541" y="24.634934">Comm</tspan>
                        </text>
                    </g>
                    <g id="sliderOption4" transform="translate(225.000000, 0.000000)">
                        <g id="bound1" fill="black" fill-opacity="1">
                            <use filter="url(#filter-9)" xlink:href="#path-8"></use>
                        </g>
                        <text id="tags" font-family=".AppleSystemUIFont" font-size="14" font-weight="normal" letter-spacing="-0.000498932204" fill="#999999">
                            <tspan x="22.0859588" y="24.634934">Tags</tspan>
                        </text>
                    </g>
                    <g id="sliderOption5" transform="translate(300.000000, 0.000000)">
                        <g id="bound" fill="black" fill-opacity="1">
                            <use filter="url(#filter-11)" xlink:href="#path-10"></use>
                        </g>
                        <text id="places" font-family=".AppleSystemUIFont" font-size="14" font-weight="normal" letter-spacing="-0.000498932204" fill="#999999">
                            <tspan x="16.5498366" y="24.634934">Places</tspan>
                        </text>
                    </g>
                </g>
            </g>
            <g id="statusBar">
                <rect id="container" x="0" y="0" width="375" height="20"></rect>
                <g id="battery" transform="translate(343.000000, 4.000000)" fill="#000000">
                    <path d="M2.5,0.5 L21.5,0.5 C22.8807119,0.5 24,1.61928813 24,3 L24,9.5 C24,10.8807119 22.8807119,12 21.5,12 L2.5,12 C1.11928813,12 0,10.8807119 0,9.5 L0,3 C0,1.61928813 1.11928813,0.5 2.5,0.5 Z M2.5,1.5 C1.67157288,1.5 1,2.17157288 1,3 L1,9.5 C1,10.3284271 1.67157288,11 2.5,11 L21.5,11 C22.3284271,11 23,10.3284271 23,9.5 L23,3 C23,2.17157288 22.3284271,1.5 21.5,1.5 L2.5,1.5 Z" id="body" fill-opacity="0.38"></path>
                    <path d="M25,3.7998548 C25.890419,4.25503254 26.5,5.18132863 26.5,6.25 C26.5,7.31867137 25.890419,8.24496746 25,8.7001452 L25,3.7998548 Z" id="terminal" fill-opacity="0.49"></path>
                    <path d="M3,2.5 L21,2.5 C21.5522847,2.5 22,2.94771525 22,3.5 L22,9 C22,9.55228475 21.5522847,10 21,10 L3,10 C2.44771525,10 2,9.55228475 2,9 L2,3.5 C2,2.94771525 2.44771525,2.5 3,2.5 Z" id="reserve"></path>
                </g>
                <text id="100%" font-family="SFProText-Regular, SF Pro Text" font-size="12" font-weight="normal" line-spacing="16" fill="#000000">
                    <tspan x="309.853516" y="12.5">100%</tspan>
                </text>
                <path d="M299.995632,15.5 L299.995632,11.2771897 L297.622463,13.3335346 L297,12.5674902 L299.963912,9.99926777 L297,7.43104536 L297.622463,6.66500092 L299.995632,8.7213458 L299.995632,4.5 L299.995632,4 L304,7.80741403 L301.470445,9.99926777 L304,12.1911215 L299.995632,15.9985355 L299.995632,15.5 Z M300.873523,13.8074242 L302.524167,12.2177234 L300.873523,10.7874439 L300.873523,13.8074242 Z M300.873523,6.19111136 L300.873523,9.21109165 L302.524167,7.78081215 L300.873523,6.19111136 Z" id="bluetooth" fill="#000000"></path>
                <text id="time" font-family="SFProText-Semibold, SF Pro Text" font-size="12" font-weight="500" line-spacing="16" fill="#000000">
                    <tspan x="163.319336" y="13.5">1:20 PM</tspan>
                </text>
                <g id="wifi" transform="translate(85.000000, 5.000000)" fill="#000000">
                    <path d="M2.97487373,5.54594155 C5.51328163,3.00753365 9.62885399,3.00753365 12.1672619,5.54594155 L10.7530483,6.96015511 C8.99568901,5.2027958 6.14644661,5.2027958 4.3890873,6.96015511 L2.97487373,5.54594155 Z M5.44974747,8.02081528 C6.62132034,6.8492424 8.52081528,6.8492424 9.69238816,8.02081528 L7.57106781,10.1421356 L5.44974747,8.02081528 Z" id="full-Bars1"></path>
                    <path d="M0.5,3.07106781 C4.40524292,-0.834175105 10.7368927,-0.834175105 14.6421356,3.07106781 L13.2279221,4.48528137 C10.1037277,1.36108704 5.0384079,1.36108704 1.91421356,4.48528137 L0.5,3.07106781 Z" id="empty-Bar1" fill-opacity="0.25"></path>
                </g>
                <text id="pixelcode" font-family=".AppleSystemUIFont" font-size="12" font-weight="normal" line-spacing="16" letter-spacing="-0.150000006" fill="#000000">
                    <tspan x="26" y="14.5">Pixelcod</tspan>
                    <tspan x="72.4425781" y="14.5">e</tspan>
                </text>
                <g id="signal" transform="translate(6.000000, 5.000000)" fill="#000000">
                    <path d="M14.5,0 L15.5,0 C16.0522847,-1.01453063e-16 16.5,0.44771525 16.5,1 L16.5,9 C16.5,9.55228475 16.0522847,10 15.5,10 L14.5,10 C13.9477153,10 13.5,9.55228475 13.5,9 L13.5,1 C13.5,0.44771525 13.9477153,1.01453063e-16 14.5,0 Z" id="empty-Bar" fill-opacity="0.25"></path>
                    <path d="M1,5.5 L2,5.5 C2.55228475,5.5 3,5.94771525 3,6.5 L3,9 C3,9.55228475 2.55228475,10 2,10 L1,10 C0.44771525,10 6.76353751e-17,9.55228475 0,9 L0,6.5 C-6.76353751e-17,5.94771525 0.44771525,5.5 1,5.5 Z M5.5,4 L6.5,4 C7.05228475,4 7.5,4.44771525 7.5,5 L7.5,9 C7.5,9.55228475 7.05228475,10 6.5,10 L5.5,10 C4.94771525,10 4.5,9.55228475 4.5,9 L4.5,5 C4.5,4.44771525 4.94771525,4 5.5,4 Z M10,2 L11,2 C11.5522847,2 12,2.44771525 12,3 L12,9 C12,9.55228475 11.5522847,10 11,10 L10,10 C9.44771525,10 9,9.55228475 9,9 L9,3 C9,2.44771525 9.44771525,2 10,2 Z" id="full-Bars"></path>
                </g>
            </g>
        </g>
    </g>
</svg>